<svg width="40" height="40" viewBox="0 0 40 40" fill="none" xmlns="http://www.w3.org/2000/svg">
<path d="M36.1053 13.2188C35.2289 11.1271 33.9539 9.2259 32.3514 7.62113C30.7537 6.01359 28.8558 4.7355 26.7655 3.85941C24.6241 2.95757 22.3234 2.49529 19.9999 2.50004H19.9217C17.5585 2.51175 15.2733 2.9805 13.121 3.90238C11.0486 4.78746 9.1685 6.06782 7.58579 7.67191C5.99881 9.27306 4.73842 11.1676 3.87486 13.25C2.97844 15.4155 2.52422 17.7384 2.53892 20.0821C2.55064 22.793 3.19908 25.4844 4.41001 27.8907V33.8282C4.41001 34.8203 5.2147 35.625 6.20298 35.625H12.1327C14.5501 36.8449 17.2179 37.4868 19.9256 37.5H20.0077C22.3436 37.5 24.6053 37.0469 26.7381 36.1602C28.8179 35.2946 30.7087 34.0314 32.3045 32.4414C33.9139 30.8438 35.1795 28.9766 36.0663 26.8946C36.9842 24.7383 37.453 22.4453 37.4647 20.0782C37.4725 17.6993 37.0116 15.3907 36.1053 13.2188ZM12.203 21.875C11.1717 21.875 10.3319 21.0352 10.3319 20C10.3319 18.9649 11.1717 18.125 12.203 18.125C13.2342 18.125 14.0741 18.9649 14.0741 20C14.0741 21.0352 13.2381 21.875 12.203 21.875ZM19.9999 21.875C18.9686 21.875 18.1288 21.0352 18.1288 20C18.1288 18.9649 18.9686 18.125 19.9999 18.125C21.0311 18.125 21.871 18.9649 21.871 20C21.871 21.0352 21.0311 21.875 19.9999 21.875ZM27.7967 21.875C26.7655 21.875 25.9256 21.0352 25.9256 20C25.9256 18.9649 26.7655 18.125 27.7967 18.125C28.828 18.125 29.6678 18.9649 29.6678 20C29.6678 21.0352 28.828 21.875 27.7967 21.875Z" fill="#8A8A8E"/>
</svg>
