<svg width="37" height="37" viewBox="0 0 37 37" fill="none" xmlns="http://www.w3.org/2000/svg">
<g clip-path="url(#clip0_6_680)">
<path fill-rule="evenodd" clip-rule="evenodd" d="M17.2479 1.46428C17.2725 1.67981 17.2545 1.89808 17.1948 2.10664C17.1351 2.3152 17.0349 2.50995 16.8999 2.67978C16.7649 2.84961 16.5978 2.99119 16.4081 3.09643C16.2184 3.20167 16.0098 3.26851 15.7943 3.29313C13.8492 3.51513 12.1472 3.98028 10.6804 4.65685C10.2826 4.84049 9.82815 4.8586 9.41702 4.70718C9.0059 4.55577 8.67176 4.24723 8.48812 3.84946C8.30447 3.45168 8.28637 2.99724 8.43778 2.58611C8.5892 2.17499 8.89773 1.84085 9.29551 1.6572C11.2351 0.783321 13.3027 0.227376 15.419 0.0107049C15.6345 -0.0139529 15.8528 0.0040865 16.0614 0.063793C16.2699 0.123499 16.4647 0.223703 16.6345 0.358683C16.8043 0.493662 16.9459 0.660773 17.0512 0.850472C17.1564 1.04017 17.2232 1.24874 17.2479 1.46428ZM20.7893 1.5277C20.824 1.31356 20.9005 1.10834 21.0145 0.923776C21.1285 0.73921 21.2778 0.578909 21.4537 0.452028C21.6297 0.325147 21.8289 0.234172 22.0401 0.184296C22.2512 0.134421 22.4701 0.126623 22.6842 0.161348C27.185 0.888134 30.8189 2.86235 33.3085 6.05492C35.7849 9.2237 37.0006 13.4391 37.0006 18.4208C37.0006 24.14 35.3964 28.8416 32.1377 32.1108C28.8844 35.388 24.2012 37.0001 18.5006 37.0001C12.0097 37.0001 6.84294 34.8991 3.61337 30.6837C3.34666 30.336 3.22899 29.8967 3.28623 29.4623C3.34348 29.0278 3.57095 28.6339 3.91862 28.3672C4.26628 28.1005 4.70565 27.9829 5.14007 28.0401C5.57449 28.0974 5.96838 28.3248 6.23508 28.6725C8.66915 31.8518 12.7207 33.6939 18.5006 33.6939C23.5854 33.6939 27.3277 32.2668 29.7988 29.7825C32.2699 27.2982 33.697 23.5348 33.697 18.4182C33.697 13.9597 32.6134 10.5293 30.7026 8.08463C28.8104 5.65849 25.9799 4.04106 22.1583 3.42263C21.9441 3.38794 21.7389 3.31141 21.5544 3.1974C21.3698 3.0834 21.2095 2.93415 21.0826 2.75818C20.9557 2.58222 20.8648 2.38298 20.8149 2.17186C20.765 1.96073 20.7546 1.74185 20.7893 1.5277ZM1.65501 16.7691C2.56679 16.7691 3.30679 17.5091 3.30679 18.4208C3.31032 20.299 3.49708 21.9984 3.86708 23.5189C3.92198 23.7311 3.93409 23.9522 3.9027 24.1691C3.87132 24.3861 3.79706 24.5946 3.68426 24.7826C3.57146 24.9705 3.42237 25.1342 3.24569 25.2639C3.06901 25.3937 2.86827 25.487 2.65517 25.5384C2.44207 25.5898 2.22087 25.5982 2.00446 25.5632C1.78806 25.5283 1.58078 25.4506 1.39471 25.3347C1.20863 25.2188 1.04749 25.067 0.920663 24.8883C0.793839 24.7095 0.703873 24.5072 0.656008 24.2933C0.207148 22.3684 -0.0128517 20.3973 0.000579739 18.4208C0.000579739 17.5091 0.743223 16.7691 1.65501 16.7691ZM6.27208 8.12163C6.40501 7.95018 6.50286 7.75423 6.56006 7.54496C6.61725 7.33569 6.63267 7.11721 6.60543 6.90198C6.57819 6.68676 6.50882 6.479 6.40129 6.29059C6.29376 6.10217 6.15017 5.93677 5.97872 5.80385C5.80727 5.67092 5.61132 5.57307 5.40205 5.51587C5.19278 5.45867 4.9743 5.44326 4.75907 5.4705C4.3244 5.52551 3.92939 5.75095 3.66094 6.0972C2.33951 7.80185 1.38015 9.80778 0.774937 12.0701C0.661737 12.4934 0.721353 12.9444 0.94067 13.3238C1.15999 13.7032 1.52104 13.98 1.9444 14.0932C2.36776 14.2064 2.81875 14.1468 3.19816 13.9274C3.57756 13.7081 3.85431 13.3471 3.96751 12.9237C4.46965 11.0367 5.25194 9.44042 6.27208 8.12163ZM20.4827 11.893C20.4827 11.3673 20.2739 10.8631 19.9022 10.4914C19.5304 10.1197 19.0263 9.91085 18.5006 9.91085C17.9749 9.91085 17.4707 10.1197 17.099 10.4914C16.7273 10.8631 16.5184 11.3673 16.5184 11.893V16.518H11.8934C11.3677 16.518 10.8636 16.7268 10.4918 17.0985C10.1201 17.4703 9.91129 17.9744 9.91129 18.5001C9.91129 19.0258 10.1201 19.53 10.4918 19.9017C10.8636 20.2734 11.3677 20.4823 11.8934 20.4823H16.5184V25.1073C16.5184 25.633 16.7273 26.1371 17.099 26.5089C17.4707 26.8806 17.9749 27.0894 18.5006 27.0894C19.0263 27.0894 19.5304 26.8806 19.9022 26.5089C20.2739 26.1371 20.4827 25.633 20.4827 25.1073V20.4823H25.1077C25.6334 20.4823 26.1376 20.2734 26.5093 19.9017C26.881 19.53 27.0899 19.0258 27.0899 18.5001C27.0899 17.9744 26.881 17.4703 26.5093 17.0985C26.1376 16.7268 25.6334 16.518 25.1077 16.518H20.4827V11.893Z" fill="#8A8A8E"/>
</g>
<defs>
<clipPath id="clip0_6_680">
<rect width="37" height="37" fill="white"/>
</clipPath>
</defs>
</svg>
