<svg width="43" height="43" viewBox="0 0 43 43" fill="none" xmlns="http://www.w3.org/2000/svg">
<path d="M6.4499 12.9C6.4499 8.74109 9.816 5.375 13.9749 5.375C18.1338 5.375 21.4999 8.74109 21.4999 12.9C21.4999 17.0589 18.1338 20.425 13.9749 20.425C9.816 20.425 6.4499 17.0589 6.4499 12.9ZM2.1499 35.475C2.1499 28.9444 7.44428 23.65 13.9749 23.65C20.5055 23.65 25.7999 28.9444 25.7999 35.475V35.8781C25.7999 37.4369 24.5368 38.7 22.978 38.7H4.97178C3.41303 38.7 2.1499 37.4369 2.1499 35.8781V35.475ZM31.1749 8.6C34.7358 8.6 37.6249 11.4891 37.6249 15.05C37.6249 18.6109 34.7358 21.5 31.1749 21.5C27.614 21.5 24.7249 18.6109 24.7249 15.05C24.7249 11.4891 27.614 8.6 31.1749 8.6ZM31.1749 24.725C36.5163 24.725 40.8499 29.0586 40.8499 34.4V35.905C40.8499 37.4503 39.6002 38.7 38.0549 38.7H28.3262C28.7696 37.8602 29.0249 36.8994 29.0249 35.8781V35.475C29.0249 32.0148 27.8558 28.8302 25.9007 26.2905C27.4191 25.3028 29.2332 24.725 31.1749 24.725Z" fill="#3C3C43" fill-opacity="0.6"/>
</svg>
